<mxfile host="app.diagrams.net" modified="2021-03-10T08:24:41.511Z" agent="5.0 (Windows NT 10.0; Win64; x64) AppleWebKit/537.36 (KHTML, like Gecko) Chrome/88.0.4324.104 Safari/537.36" etag="lUwfC8vyTXPkiznVE7fn" version="14.4.3" type="github">
  <diagram name="省侧退订统一收口历史数据订购管理" id="13e1069c-82ec-6db2-03f1-153e76fe0fe0">
    <mxGraphModel dx="1182" dy="582" grid="1" gridSize="10" guides="1" tooltips="1" connect="1" arrows="1" fold="1" page="1" pageScale="1" pageWidth="1100" pageHeight="850" background="#ffffff" math="0" shadow="0">
      <root>
        <mxCell id="0" />
        <mxCell id="1" parent="0" />
        <mxCell id="ezzfiKeEvcACdHflJw4L-56" value="权益运营管理平台" style="shape=umlLifeline;perimeter=lifelinePerimeter;whiteSpace=wrap;html=1;container=1;collapsible=0;recursiveResize=0;outlineConnect=0;rounded=1;shadow=0;comic=0;labelBackgroundColor=none;strokeWidth=1;fontFamily=Verdana;fontSize=12;align=center;" vertex="1" parent="1">
          <mxGeometry x="500" y="80" width="100" height="1460" as="geometry" />
        </mxCell>
        <mxCell id="ezzfiKeEvcACdHflJw4L-57" value="" style="html=1;points=[];perimeter=orthogonalPerimeter;rounded=0;shadow=0;comic=0;labelBackgroundColor=none;strokeWidth=1;fontFamily=Verdana;fontSize=12;align=center;" vertex="1" parent="ezzfiKeEvcACdHflJw4L-56">
          <mxGeometry x="45" y="100" width="10" height="180" as="geometry" />
        </mxCell>
        <mxCell id="ezzfiKeEvcACdHflJw4L-58" value="MYSQL" style="shape=umlLifeline;perimeter=lifelinePerimeter;whiteSpace=wrap;html=1;container=1;collapsible=0;recursiveResize=0;outlineConnect=0;rounded=1;shadow=0;comic=0;labelBackgroundColor=none;strokeWidth=1;fontFamily=Verdana;fontSize=12;align=center;" vertex="1" parent="1">
          <mxGeometry x="820" y="80" width="100" height="1460" as="geometry" />
        </mxCell>
        <mxCell id="ezzfiKeEvcACdHflJw4L-59" value="" style="html=1;points=[];perimeter=orthogonalPerimeter;rounded=0;shadow=0;comic=0;labelBackgroundColor=none;strokeWidth=1;fontFamily=Verdana;fontSize=12;align=center;" vertex="1" parent="ezzfiKeEvcACdHflJw4L-58">
          <mxGeometry x="45" y="120" width="10" height="110" as="geometry" />
        </mxCell>
        <mxCell id="ezzfiKeEvcACdHflJw4L-60" value="运营人员" style="shape=umlLifeline;perimeter=lifelinePerimeter;whiteSpace=wrap;html=1;container=1;collapsible=0;recursiveResize=0;outlineConnect=0;rounded=1;shadow=0;comic=0;labelBackgroundColor=none;strokeWidth=1;fontFamily=Verdana;fontSize=12;align=center;" vertex="1" parent="1">
          <mxGeometry x="180" y="80" width="100" height="1460" as="geometry" />
        </mxCell>
        <mxCell id="ezzfiKeEvcACdHflJw4L-61" value="" style="html=1;points=[];perimeter=orthogonalPerimeter;rounded=0;shadow=0;comic=0;labelBackgroundColor=none;strokeWidth=1;fontFamily=Verdana;fontSize=12;align=center;" vertex="1" parent="ezzfiKeEvcACdHflJw4L-60">
          <mxGeometry x="45" y="100" width="10" height="1290" as="geometry" />
        </mxCell>
        <mxCell id="ezzfiKeEvcACdHflJw4L-62" value="输入历史数据订单筛选条件" style="html=1;verticalAlign=bottom;endArrow=block;entryX=0;entryY=0;labelBackgroundColor=none;fontFamily=Verdana;fontSize=12;edgeStyle=elbowEdgeStyle;elbow=vertical;" edge="1" parent="1" source="ezzfiKeEvcACdHflJw4L-61" target="ezzfiKeEvcACdHflJw4L-57">
          <mxGeometry relative="1" as="geometry">
            <mxPoint x="480" y="190" as="sourcePoint" />
          </mxGeometry>
        </mxCell>
        <mxCell id="ezzfiKeEvcACdHflJw4L-63" value="读取数据库历史订单" style="html=1;verticalAlign=bottom;endArrow=block;entryX=0;entryY=0;labelBackgroundColor=none;fontFamily=Verdana;fontSize=12;edgeStyle=elbowEdgeStyle;elbow=vertical;" edge="1" parent="1" source="ezzfiKeEvcACdHflJw4L-57" target="ezzfiKeEvcACdHflJw4L-59">
          <mxGeometry relative="1" as="geometry">
            <mxPoint x="630" y="200" as="sourcePoint" />
          </mxGeometry>
        </mxCell>
        <mxCell id="ezzfiKeEvcACdHflJw4L-64" value="" style="html=1;verticalAlign=bottom;endArrow=open;dashed=1;endSize=8;" edge="1" parent="1">
          <mxGeometry relative="1" as="geometry">
            <mxPoint x="860" y="269" as="sourcePoint" />
            <mxPoint x="560" y="269" as="targetPoint" />
          </mxGeometry>
        </mxCell>
        <mxCell id="ezzfiKeEvcACdHflJw4L-65" value="" style="html=1;verticalAlign=bottom;endArrow=open;dashed=1;endSize=8;entryX=1.2;entryY=0.387;entryDx=0;entryDy=0;entryPerimeter=0;" edge="1" parent="1">
          <mxGeometry relative="1" as="geometry">
            <mxPoint x="538" y="340" as="sourcePoint" />
            <mxPoint x="235" y="340.01" as="targetPoint" />
          </mxGeometry>
        </mxCell>
        <mxCell id="ezzfiKeEvcACdHflJw4L-66" value="输出历史数据订单列表" style="edgeLabel;html=1;align=center;verticalAlign=middle;resizable=0;points=[];" vertex="1" connectable="0" parent="ezzfiKeEvcACdHflJw4L-65">
          <mxGeometry x="0.1023" y="-1" relative="1" as="geometry">
            <mxPoint x="6" y="-10.010000000000002" as="offset" />
          </mxGeometry>
        </mxCell>
        <mxCell id="ezzfiKeEvcACdHflJw4L-67" value="" style="html=1;points=[];perimeter=orthogonalPerimeter;rounded=0;shadow=0;comic=0;labelBackgroundColor=none;strokeWidth=1;fontFamily=Verdana;fontSize=12;align=center;" vertex="1" parent="1">
          <mxGeometry x="545" y="420" width="10" height="180" as="geometry" />
        </mxCell>
        <mxCell id="ezzfiKeEvcACdHflJw4L-68" value="" style="html=1;points=[];perimeter=orthogonalPerimeter;rounded=0;shadow=0;comic=0;labelBackgroundColor=none;strokeWidth=1;fontFamily=Verdana;fontSize=12;align=center;" vertex="1" parent="1">
          <mxGeometry x="865" y="440" width="10" height="110" as="geometry" />
        </mxCell>
        <mxCell id="ezzfiKeEvcACdHflJw4L-69" value="输入历史数据信息" style="html=1;verticalAlign=bottom;endArrow=block;entryX=0;entryY=0;labelBackgroundColor=none;fontFamily=Verdana;fontSize=12;edgeStyle=elbowEdgeStyle;elbow=vertical;" edge="1" parent="1" target="ezzfiKeEvcACdHflJw4L-67">
          <mxGeometry relative="1" as="geometry">
            <mxPoint x="235" y="420" as="sourcePoint" />
          </mxGeometry>
        </mxCell>
        <mxCell id="ezzfiKeEvcACdHflJw4L-70" value="读取数据库历史订单" style="html=1;verticalAlign=bottom;endArrow=block;entryX=0;entryY=0;labelBackgroundColor=none;fontFamily=Verdana;fontSize=12;edgeStyle=elbowEdgeStyle;elbow=vertical;" edge="1" parent="1" source="ezzfiKeEvcACdHflJw4L-67" target="ezzfiKeEvcACdHflJw4L-68">
          <mxGeometry relative="1" as="geometry">
            <mxPoint x="630" y="440" as="sourcePoint" />
          </mxGeometry>
        </mxCell>
        <mxCell id="ezzfiKeEvcACdHflJw4L-71" value="" style="html=1;verticalAlign=bottom;endArrow=open;dashed=1;endSize=8;" edge="1" parent="1">
          <mxGeometry relative="1" as="geometry">
            <mxPoint x="860" y="509" as="sourcePoint" />
            <mxPoint x="560" y="509" as="targetPoint" />
          </mxGeometry>
        </mxCell>
        <mxCell id="ezzfiKeEvcACdHflJw4L-72" value="" style="html=1;verticalAlign=bottom;endArrow=open;dashed=1;endSize=8;entryX=1.2;entryY=0.387;entryDx=0;entryDy=0;entryPerimeter=0;" edge="1" parent="1">
          <mxGeometry relative="1" as="geometry">
            <mxPoint x="538" y="580" as="sourcePoint" />
            <mxPoint x="235" y="580.01" as="targetPoint" />
          </mxGeometry>
        </mxCell>
        <mxCell id="ezzfiKeEvcACdHflJw4L-73" value="输出历史数据订单新增结果" style="edgeLabel;html=1;align=center;verticalAlign=middle;resizable=0;points=[];" vertex="1" connectable="0" parent="ezzfiKeEvcACdHflJw4L-72">
          <mxGeometry x="0.1023" y="-1" relative="1" as="geometry">
            <mxPoint x="6" y="-10.010000000000002" as="offset" />
          </mxGeometry>
        </mxCell>
        <mxCell id="ezzfiKeEvcACdHflJw4L-74" value="" style="html=1;points=[];perimeter=orthogonalPerimeter;rounded=0;shadow=0;comic=0;labelBackgroundColor=none;strokeWidth=1;fontFamily=Verdana;fontSize=12;align=center;" vertex="1" parent="1">
          <mxGeometry x="545" y="660" width="10" height="180" as="geometry" />
        </mxCell>
        <mxCell id="ezzfiKeEvcACdHflJw4L-75" value="" style="html=1;points=[];perimeter=orthogonalPerimeter;rounded=0;shadow=0;comic=0;labelBackgroundColor=none;strokeWidth=1;fontFamily=Verdana;fontSize=12;align=center;" vertex="1" parent="1">
          <mxGeometry x="865" y="680" width="10" height="110" as="geometry" />
        </mxCell>
        <mxCell id="ezzfiKeEvcACdHflJw4L-76" value="输入历史数据作废信息" style="html=1;verticalAlign=bottom;endArrow=block;entryX=0;entryY=0;labelBackgroundColor=none;fontFamily=Verdana;fontSize=12;edgeStyle=elbowEdgeStyle;elbow=vertical;" edge="1" parent="1" target="ezzfiKeEvcACdHflJw4L-74">
          <mxGeometry relative="1" as="geometry">
            <mxPoint x="235" y="660" as="sourcePoint" />
          </mxGeometry>
        </mxCell>
        <mxCell id="ezzfiKeEvcACdHflJw4L-77" value="读取数据库历史订单" style="html=1;verticalAlign=bottom;endArrow=block;entryX=0;entryY=0;labelBackgroundColor=none;fontFamily=Verdana;fontSize=12;edgeStyle=elbowEdgeStyle;elbow=vertical;" edge="1" parent="1" source="ezzfiKeEvcACdHflJw4L-74" target="ezzfiKeEvcACdHflJw4L-75">
          <mxGeometry relative="1" as="geometry">
            <mxPoint x="630" y="680" as="sourcePoint" />
          </mxGeometry>
        </mxCell>
        <mxCell id="ezzfiKeEvcACdHflJw4L-78" value="" style="html=1;verticalAlign=bottom;endArrow=open;dashed=1;endSize=8;" edge="1" parent="1">
          <mxGeometry relative="1" as="geometry">
            <mxPoint x="860" y="749" as="sourcePoint" />
            <mxPoint x="560" y="749" as="targetPoint" />
          </mxGeometry>
        </mxCell>
        <mxCell id="ezzfiKeEvcACdHflJw4L-79" value="" style="html=1;verticalAlign=bottom;endArrow=open;dashed=1;endSize=8;entryX=1.2;entryY=0.387;entryDx=0;entryDy=0;entryPerimeter=0;" edge="1" parent="1">
          <mxGeometry relative="1" as="geometry">
            <mxPoint x="538" y="820" as="sourcePoint" />
            <mxPoint x="235" y="820.01" as="targetPoint" />
          </mxGeometry>
        </mxCell>
        <mxCell id="ezzfiKeEvcACdHflJw4L-80" value="输出历史数据订单作废结果" style="edgeLabel;html=1;align=center;verticalAlign=middle;resizable=0;points=[];" vertex="1" connectable="0" parent="ezzfiKeEvcACdHflJw4L-79">
          <mxGeometry x="0.1023" y="-1" relative="1" as="geometry">
            <mxPoint x="6" y="-10.010000000000002" as="offset" />
          </mxGeometry>
        </mxCell>
        <mxCell id="ezzfiKeEvcACdHflJw4L-88" value="" style="html=1;points=[];perimeter=orthogonalPerimeter;rounded=0;shadow=0;comic=0;labelBackgroundColor=none;strokeWidth=1;fontFamily=Verdana;fontSize=12;align=center;" vertex="1" parent="1">
          <mxGeometry x="545" y="970" width="10" height="180" as="geometry" />
        </mxCell>
        <mxCell id="ezzfiKeEvcACdHflJw4L-89" value="" style="html=1;points=[];perimeter=orthogonalPerimeter;rounded=0;shadow=0;comic=0;labelBackgroundColor=none;strokeWidth=1;fontFamily=Verdana;fontSize=12;align=center;" vertex="1" parent="1">
          <mxGeometry x="865" y="990" width="10" height="110" as="geometry" />
        </mxCell>
        <mxCell id="ezzfiKeEvcACdHflJw4L-90" value="输入历史数据信息" style="html=1;verticalAlign=bottom;endArrow=block;entryX=0;entryY=0;labelBackgroundColor=none;fontFamily=Verdana;fontSize=12;edgeStyle=elbowEdgeStyle;elbow=vertical;" edge="1" parent="1" target="ezzfiKeEvcACdHflJw4L-88">
          <mxGeometry relative="1" as="geometry">
            <mxPoint x="235" y="970" as="sourcePoint" />
          </mxGeometry>
        </mxCell>
        <mxCell id="ezzfiKeEvcACdHflJw4L-91" value="读取数据库历史订单" style="html=1;verticalAlign=bottom;endArrow=block;entryX=0;entryY=0;labelBackgroundColor=none;fontFamily=Verdana;fontSize=12;edgeStyle=elbowEdgeStyle;elbow=vertical;" edge="1" parent="1" source="ezzfiKeEvcACdHflJw4L-88" target="ezzfiKeEvcACdHflJw4L-89">
          <mxGeometry relative="1" as="geometry">
            <mxPoint x="630" y="990" as="sourcePoint" />
          </mxGeometry>
        </mxCell>
        <mxCell id="ezzfiKeEvcACdHflJw4L-92" value="" style="html=1;verticalAlign=bottom;endArrow=open;dashed=1;endSize=8;" edge="1" parent="1">
          <mxGeometry relative="1" as="geometry">
            <mxPoint x="860" y="1059" as="sourcePoint" />
            <mxPoint x="560" y="1059" as="targetPoint" />
          </mxGeometry>
        </mxCell>
        <mxCell id="ezzfiKeEvcACdHflJw4L-93" value="" style="html=1;verticalAlign=bottom;endArrow=open;dashed=1;endSize=8;entryX=1.2;entryY=0.387;entryDx=0;entryDy=0;entryPerimeter=0;" edge="1" parent="1">
          <mxGeometry relative="1" as="geometry">
            <mxPoint x="538" y="1130" as="sourcePoint" />
            <mxPoint x="235" y="1130.01" as="targetPoint" />
          </mxGeometry>
        </mxCell>
        <mxCell id="ezzfiKeEvcACdHflJw4L-94" value="输出历史数据订单修改结果" style="edgeLabel;html=1;align=center;verticalAlign=middle;resizable=0;points=[];" vertex="1" connectable="0" parent="ezzfiKeEvcACdHflJw4L-93">
          <mxGeometry x="0.1023" y="-1" relative="1" as="geometry">
            <mxPoint x="6" y="-10.010000000000002" as="offset" />
          </mxGeometry>
        </mxCell>
        <mxCell id="ezzfiKeEvcACdHflJw4L-95" value="" style="html=1;points=[];perimeter=orthogonalPerimeter;rounded=0;shadow=0;comic=0;labelBackgroundColor=none;strokeWidth=1;fontFamily=Verdana;fontSize=12;align=center;" vertex="1" parent="1">
          <mxGeometry x="545" y="1220" width="10" height="180" as="geometry" />
        </mxCell>
        <mxCell id="ezzfiKeEvcACdHflJw4L-96" value="" style="html=1;points=[];perimeter=orthogonalPerimeter;rounded=0;shadow=0;comic=0;labelBackgroundColor=none;strokeWidth=1;fontFamily=Verdana;fontSize=12;align=center;" vertex="1" parent="1">
          <mxGeometry x="865" y="1240" width="10" height="110" as="geometry" />
        </mxCell>
        <mxCell id="ezzfiKeEvcACdHflJw4L-97" value="输入历史数据订单信息" style="html=1;verticalAlign=bottom;endArrow=block;entryX=0;entryY=0;labelBackgroundColor=none;fontFamily=Verdana;fontSize=12;edgeStyle=elbowEdgeStyle;elbow=vertical;" edge="1" parent="1" target="ezzfiKeEvcACdHflJw4L-95">
          <mxGeometry relative="1" as="geometry">
            <mxPoint x="235" y="1220" as="sourcePoint" />
          </mxGeometry>
        </mxCell>
        <mxCell id="ezzfiKeEvcACdHflJw4L-98" value="读取数据库历史订单" style="html=1;verticalAlign=bottom;endArrow=block;entryX=0;entryY=0;labelBackgroundColor=none;fontFamily=Verdana;fontSize=12;edgeStyle=elbowEdgeStyle;elbow=vertical;" edge="1" parent="1" source="ezzfiKeEvcACdHflJw4L-95" target="ezzfiKeEvcACdHflJw4L-96">
          <mxGeometry relative="1" as="geometry">
            <mxPoint x="630" y="1240" as="sourcePoint" />
          </mxGeometry>
        </mxCell>
        <mxCell id="ezzfiKeEvcACdHflJw4L-99" value="" style="html=1;verticalAlign=bottom;endArrow=open;dashed=1;endSize=8;" edge="1" parent="1">
          <mxGeometry relative="1" as="geometry">
            <mxPoint x="860" y="1309" as="sourcePoint" />
            <mxPoint x="560" y="1309" as="targetPoint" />
          </mxGeometry>
        </mxCell>
        <mxCell id="ezzfiKeEvcACdHflJw4L-100" value="" style="html=1;verticalAlign=bottom;endArrow=open;dashed=1;endSize=8;entryX=1.2;entryY=0.387;entryDx=0;entryDy=0;entryPerimeter=0;" edge="1" parent="1">
          <mxGeometry relative="1" as="geometry">
            <mxPoint x="538" y="1380" as="sourcePoint" />
            <mxPoint x="235" y="1380.01" as="targetPoint" />
          </mxGeometry>
        </mxCell>
        <mxCell id="ezzfiKeEvcACdHflJw4L-101" value="输出历史数据订单信息" style="edgeLabel;html=1;align=center;verticalAlign=middle;resizable=0;points=[];" vertex="1" connectable="0" parent="ezzfiKeEvcACdHflJw4L-100">
          <mxGeometry x="0.1023" y="-1" relative="1" as="geometry">
            <mxPoint x="6" y="-10.010000000000002" as="offset" />
          </mxGeometry>
        </mxCell>
      </root>
    </mxGraphModel>
  </diagram>
</mxfile>
